<svg width="193" height="133" viewBox="0 0 193 133" fill="none" xmlns="http://www.w3.org/2000/svg">
<path d="M143.993 89.9549C143.156 83.0548 142.111 61.0998 167.202 49.8086C170.966 56.7087 172.848 84.3094 159.048 102.501C135.211 139.511 77.5003 142.647 69.9728 107.519C64.3272 84.9367 115.137 54.8269 143.993 89.9549Z" fill="white"/>
<path d="M9.75337 86.1905C31.7084 91.8361 123.92 79.2903 121.41 29.7347C126.429 37.8894 150.893 53.5716 177.239 40.3985C190.412 32.2438 213.622 10.9161 154.657 15.3071L160.302 21.5799C166.575 20.3254 189.157 22.2072 161.557 35.3803C147.756 -10.4117 35.4721 -25.4665 35.4721 75.5266C28.572 76.1539 7.24423 77.4085 29.8266 61.7263L29.8265 54.1989C-4.04693 74.272 -6.55609 81.1722 9.75337 86.1905Z" fill="white"/>
</svg>
