<svg width="179" height="122" viewBox="0 0 179 122" fill="none" xmlns="http://www.w3.org/2000/svg">
<path d="M132.936 83.0469C132.164 76.6766 131.199 56.4074 154.363 45.9832C157.838 52.3536 159.575 77.8348 146.835 94.6293C124.828 128.797 71.5493 131.693 64.5999 99.2622C59.3878 78.4139 106.297 50.6162 132.936 83.0469Z" fill="#141937"/>
<path d="M9.00444 79.5722C29.2736 84.7843 114.404 73.2019 112.088 27.4515C116.721 34.98 139.306 49.458 163.629 37.2965C175.791 29.7679 197.218 10.0779 142.781 14.1317L147.993 19.9229C153.784 18.7647 174.633 20.502 149.151 32.6635C136.411 -9.6122 32.7483 -23.511 32.7483 69.7272C26.378 70.3063 6.68797 71.4645 27.5363 56.9865L27.5363 50.0371C-3.73618 68.5689 -6.05267 74.9392 9.00444 79.5722Z" fill="#141937"/>
</svg>
